<svg width="327" height="165" viewBox="0 0 327 165" fill="none" xmlns="http://www.w3.org/2000/svg">
<rect width="326.033" height="164.526" fill="#E2E2E2"/>
<path d="M150.859 116.1C147.864 116.1 145.618 115.34 144.121 113.819C142.646 112.322 141.909 110.007 141.909 106.874L152.829 97.1978C153.428 96.691 154.05 96.2994 154.695 96.0229C155.34 95.7465 155.985 95.6082 156.63 95.6082C157.344 95.6082 158.035 95.7465 158.703 96.0229C159.395 96.2763 160.051 96.691 160.673 97.2669L165.96 102.105L179.333 90.252C180.001 89.6531 180.704 89.2153 181.441 88.9389C182.179 88.6624 182.95 88.5242 183.757 88.5242C184.54 88.5242 185.312 88.674 186.072 88.9735C186.832 89.2729 187.523 89.7106 188.145 90.2866L204.214 105.318V107.046C204.214 110.087 203.465 112.356 201.968 113.854C200.47 115.351 198.236 116.1 195.264 116.1H150.859ZM163.818 91.0123C161.836 91.0123 160.132 90.2981 158.703 88.8698C157.298 87.4415 156.595 85.7252 156.595 83.7209C156.595 81.7627 157.298 80.081 158.703 78.6757C160.132 77.2474 161.836 76.5333 163.818 76.5333C165.131 76.5333 166.329 76.8673 167.412 77.5354C168.517 78.1804 169.393 79.0558 170.038 80.1616C170.706 81.2444 171.04 82.4308 171.04 83.7209C171.04 85.7252 170.326 87.4415 168.897 88.8698C167.492 90.2981 165.799 91.0123 163.818 91.0123ZM123.767 98.1999L118.031 65.6826C117.363 61.9506 117.835 58.9442 119.448 56.6635C121.083 54.3597 123.779 52.8738 127.534 52.2057L173.977 44.016C177.732 43.3709 180.762 43.8547 183.065 45.4673C185.369 47.0569 186.855 49.7062 187.523 53.4152L189.527 64.8533H181.752L180.094 55.5577C179.817 53.9911 179.207 52.8969 178.262 52.2749C177.341 51.6529 176.143 51.4686 174.668 51.722L129.538 59.6699C128.041 59.9233 126.958 60.5107 126.29 61.4322C125.645 62.3307 125.46 63.5747 125.737 65.1643L131.197 96.092C131.496 97.6355 132.107 98.7298 133.028 99.3748C133.95 99.9969 135.148 100.181 136.622 99.9277L142.358 98.8911V106.701L137.313 107.599C133.535 108.244 130.494 107.772 128.19 106.182C125.91 104.57 124.435 101.909 123.767 98.1999ZM149.442 119.21C145.618 119.21 142.704 118.219 140.7 116.238C138.718 114.28 137.728 111.4 137.728 107.599V74.5981C137.728 70.7969 138.718 67.9173 140.7 65.9591C142.704 63.9779 145.618 62.9873 149.442 62.9873H196.577C200.401 62.9873 203.304 63.9779 205.285 65.9591C207.289 67.9403 208.291 70.82 208.291 74.5981V107.599C208.291 111.4 207.289 114.28 205.285 116.238C203.304 118.219 200.401 119.21 196.577 119.21H149.442ZM150.099 111.504H195.92C197.418 111.504 198.57 111.112 199.376 110.329C200.205 109.569 200.62 108.394 200.62 106.804V75.3929C200.62 73.8033 200.205 72.6169 199.376 71.8336C198.57 71.0504 197.418 70.6587 195.92 70.6587H150.099C148.578 70.6587 147.415 71.0504 146.609 71.8336C145.825 72.6169 145.434 73.8033 145.434 75.3929V106.804C145.434 108.394 145.825 109.569 146.609 110.329C147.415 111.112 148.578 111.504 150.099 111.504Z" fill="#A0A0A0"/>
</svg>
