<svg width="18" height="18" viewBox="0 0 18 18" fill="none" xmlns="http://www.w3.org/2000/svg">
<path d="M13.9021 4.09865L13.9046 4.09657C13.8554 4.03796 13.7991 3.98615 13.7479 3.92915C13.6493 3.81928 13.5512 3.70951 13.446 3.60612C13.372 3.53337 13.293 3.46614 13.2157 3.39682C13.1176 3.30869 13.0197 3.22078 12.9167 3.13839C12.8314 3.06987 12.7429 3.00628 12.6544 2.94194C12.5515 2.86694 12.4479 2.79365 12.3408 2.72433C12.2475 2.6639 12.1521 2.60712 12.0557 2.55087C11.9457 2.48708 11.834 2.42623 11.7207 2.3683C11.6219 2.31783 11.5225 2.2694 11.4207 2.22365C11.3016 2.17008 11.1802 2.12112 11.0575 2.07403C10.9561 2.0353 10.8552 1.99608 10.7515 1.96206C10.6195 1.9184 10.4847 1.88203 10.3493 1.84619C10.2503 1.81978 10.1525 1.79128 10.0518 1.76953C9.89643 1.73556 9.73759 1.71199 9.57859 1.68874C9.49341 1.67642 9.41011 1.65917 9.32391 1.64974C8.17994 1.52272 7.02235 1.6827 5.95571 2.11523C4.88907 2.54775 3.94698 3.2392 3.21457 4.1271V2.1433H2.14314V6.42901H6.42886V5.35758H3.6493C4.18156 4.53626 4.91068 3.86099 5.77035 3.39319C6.63003 2.92539 7.593 2.67989 8.57171 2.67901C8.78452 2.67956 8.99715 2.69153 9.20868 2.71485C9.28164 2.72267 9.35225 2.73735 9.42436 2.7478C9.55877 2.7674 9.69296 2.78755 9.82443 2.8161C9.90971 2.83464 9.99286 2.85896 10.0769 2.88119C10.191 2.9113 10.305 2.94215 10.4162 2.9788C10.5042 3.0081 10.5903 3.04132 10.6765 3.07426C10.7797 3.11401 10.882 3.1551 10.9822 3.2001C11.0685 3.23905 11.1532 3.28046 11.2373 3.32332C11.3329 3.37199 11.4269 3.42319 11.5192 3.4769C11.6012 3.52474 11.6824 3.57333 11.7619 3.62465C11.8519 3.68299 11.9392 3.74476 12.0256 3.80749C12.1009 3.86246 12.1765 3.91662 12.249 3.9749C12.3356 4.04423 12.4181 4.11826 12.5008 4.19257C12.5664 4.25149 12.6336 4.30871 12.6964 4.37042C12.7858 4.45807 12.8691 4.55144 12.9528 4.64455C13.5903 5.35566 14.0453 6.21114 14.2785 7.13724C14.5118 8.06335 14.5163 9.03228 14.2917 9.96052C14.0671 10.8888 13.6201 11.7484 12.9893 12.4655C12.3584 13.1825 11.5627 13.7353 10.6706 14.0763C9.77852 14.4173 8.8169 14.5363 7.86863 14.4229C6.92036 14.3095 6.0139 13.9672 5.22738 13.4254C4.44087 12.8837 3.79791 12.1588 3.35392 11.3133C2.90994 10.4677 2.67826 9.52689 2.67886 8.57187H1.60743C1.60601 9.69213 1.87486 10.7962 2.39117 11.7904C2.90747 12.7846 3.65599 13.6395 4.57321 14.2827C5.49043 14.9259 6.54927 15.3383 7.65988 15.485C8.7705 15.6317 9.9001 15.5083 10.9528 15.1252C12.0056 14.7422 12.9504 14.1109 13.7071 13.2848C14.4638 12.4588 15.01 11.4623 15.2995 10.3801C15.589 9.2979 15.6131 8.16183 15.3698 7.06831C15.1265 5.97478 14.623 4.95608 13.9021 4.09865Z" fill="#001346"/>
</svg>
