<svg width="18" height="18" viewBox="0 0 18 18" fill="none" xmlns="http://www.w3.org/2000/svg">
<path d="M6.42871 6.42871H7.50014V12.8573H6.42871V6.42871ZM9.643 6.42871H10.7144V12.8573H9.643V6.42871Z" fill="white"/>
<path d="M2.14258 3.21415V4.28557H3.21401V14.9999C3.21401 15.284 3.32689 15.5565 3.52782 15.7575C3.72875 15.9584 4.00127 16.0713 4.28544 16.0713H12.8569C13.141 16.0713 13.4135 15.9584 13.6145 15.7575C13.8154 15.5565 13.9283 15.284 13.9283 14.9999V4.28557H14.9997V3.21415H2.14258ZM4.28544 14.9999V4.28557H12.8569V14.9999H4.28544ZM6.42829 1.07129H10.714V2.14272H6.42829V1.07129Z" fill="white"/>
</svg>
