<svg width="18" height="18" viewBox="0 0 18 18" fill="none" xmlns="http://www.w3.org/2000/svg">
<path d="M16.6076 8.35728C15.3218 5.03585 12.1076 2.78585 8.57185 2.67871C5.03613 2.78585 1.82185 5.03585 0.536133 8.35728C0.536133 8.46442 0.536133 8.57157 0.536133 8.67871C1.82185 12.0001 4.92899 14.2501 8.57185 14.3573C12.1076 14.2501 15.3218 12.0001 16.6076 8.67871C16.6076 8.67871 16.6076 8.46442 16.6076 8.35728ZM8.57185 13.393C5.67899 13.393 2.78613 11.2501 1.60756 8.57157C2.67899 5.893 5.67899 3.75014 8.57185 3.75014C11.4647 3.75014 14.3576 5.893 15.5361 8.57157C14.3576 11.2501 11.3576 13.393 8.57185 13.393Z" fill="#001346"/>
<path d="M8.57171 5.35742C6.75028 5.35742 5.35742 6.75028 5.35742 8.57171C5.35742 10.3931 6.75028 11.786 8.57171 11.786C10.3931 11.786 11.786 10.3931 11.786 8.57171C11.786 6.75028 10.3931 5.35742 8.57171 5.35742ZM8.57171 10.7146C7.39314 10.7146 6.42885 9.75028 6.42885 8.57171C6.42885 7.39314 7.39314 6.42885 8.57171 6.42885C9.75028 6.42885 10.7146 7.39314 10.7146 8.57171C10.7146 9.75028 9.75028 10.7146 8.57171 10.7146Z" fill="#001346"/>
</svg>
